STARTFONT 2.1
FONT -FontForge-Butcherman-Book-R-Normal--16-160-72-72-P-86-ISO10646-1
SIZE 16 72 72
FONTBOUNDINGBOX 25 30 -2 -10
COMMENT "Generated by fontforge, http://fontforge.sourceforge.net"
COMMENT "Copyright (c) 2011, Typomondo, with Reserved Font Name  "Butcherman"."
STARTPROPERTIES 40
FOUNDRY "FontForge"
FAMILY_NAME "Butcherman"
WEIGHT_NAME "Book"
SLANT "R"
SETWIDTH_NAME "Normal"
ADD_STYLE_NAME ""
PIXEL_SIZE 16
POINT_SIZE 160
RESOLUTION_X 72
RESOLUTION_Y 72
SPACING "P"
AVERAGE_WIDTH 86
CHARSET_REGISTRY "ISO10646"
CHARSET_ENCODING "1"
FONTNAME_REGISTRY ""
CHARSET_COLLECTIONS "ISO8859-2 ISO8859-9 ISO8859-4 ISO10646-1"
FONT_NAME "Butcherman-Regular"
FACE_NAME "Butcherman Regular"
COPYRIGHT "Copyright (c) 2011, Typomondo, with Reserved Font Name  "Butcherman"."
FONT_VERSION "001.004"
FONT_ASCENT 13
FONT_DESCENT 3
UNDERLINE_POSITION -2
UNDERLINE_THICKNESS 1
X_HEIGHT 11
CAP_HEIGHT 11
DEFAULT_CHAR 3
RAW_ASCENT 799
RAW_DESCENT 200
NORM_SPACE 3
RELATIVE_WEIGHT 40
RELATIVE_SETWIDTH 50
SUPERSCRIPT_X 0
SUPERSCRIPT_Y 5
SUPERSCRIPT_SIZE 9
SUBSCRIPT_X 0
SUBSCRIPT_Y 1
SUBSCRIPT_SIZE 9
AVG_LOWERCASE_WIDTH 94
AVG_UPPERCASE_WIDTH 88
ENDPROPERTIES
CHARS 331
STARTCHAR NULL.dup1
ENCODING 0
SWIDTH 161 0
DWIDTH 3 0
BBX 1 1 0 0
BITMAP
00
ENDCHAR
STARTCHAR CR
ENCODING 13
SWIDTH 161 0
DWIDTH 3 0
BBX 1 1 0 0
BITMAP
00
ENDCHAR
STARTCHAR space
ENCODING 32
SWIDTH 161 0
DWIDTH 3 0
BBX 1 1 0 0
BITMAP
00
ENDCHAR
STARTCHAR exclam
ENCODING 33
SWIDTH 350 0
DWIDTH 6 0
BBX 5 19 0 1
BITMAP
30
F8
78
78
70
70
70
30
30
30
30
30
50
00
B8
78
78
78
78
ENDCHAR
STARTCHAR quotedbl
ENCODING 34
SWIDTH 541 0
DWIDTH 9 0
BBX 7 6 1 6
BITMAP
EE
EE
EE
EC
C4
44
ENDCHAR
STARTCHAR numbersign
ENCODING 35
SWIDTH 583 0
DWIDTH 9 0
BBX 9 15 0 -2
BITMAP
0100
0980
1900
1100
7F80
7F80
3F80
2200
2600
A500
FE00
7E00
4400
4800
4800
ENDCHAR
STARTCHAR dollar
ENCODING 36
SWIDTH 534 0
DWIDTH 9 0
BBX 7 20 1 -4
BITMAP
10
10
10
10
38
7C
FE
FE
FE
EE
E2
F8
7C
0C
EC
78
50
10
10
10
ENDCHAR
STARTCHAR percent
ENCODING 37
SWIDTH 828 0
DWIDTH 13 0
BBX 13 15 0 -2
BITMAP
0080
0180
7180
F980
5900
5930
5378
7278
2678
0678
0450
0430
0C00
0800
0400
ENDCHAR
STARTCHAR ampersand
ENCODING 38
SWIDTH 522 0
DWIDTH 8 0
BBX 7 8 1 2
BITMAP
30
38
32
FE
FE
30
30
30
ENDCHAR
STARTCHAR quotesingle
ENCODING 39
SWIDTH 300 0
DWIDTH 5 0
BBX 3 6 1 6
BITMAP
E0
E0
E0
E0
E0
40
ENDCHAR
STARTCHAR parenleft
ENCODING 40
SWIDTH 372 0
DWIDTH 6 0
BBX 5 16 1 -2
BITMAP
08
38
78
70
F0
F0
E0
E0
C0
C0
C0
E0
E0
70
70
30
ENDCHAR
STARTCHAR parenright
ENCODING 41
SWIDTH 338 0
DWIDTH 5 0
BBX 5 15 0 -2
BITMAP
E0
70
78
78
78
38
38
38
30
30
30
30
30
E0
C0
ENDCHAR
STARTCHAR asterisk
ENCODING 42
SWIDTH 513 0
DWIDTH 8 0
BBX 8 10 0 3
BITMAP
04
24
3C
3C
FF
7F
1C
3C
34
10
ENDCHAR
STARTCHAR plus
ENCODING 43
SWIDTH 458 0
DWIDTH 7 0
BBX 6 6 1 3
BITMAP
30
30
FC
FC
30
30
ENDCHAR
STARTCHAR comma
ENCODING 44
SWIDTH 361 0
DWIDTH 6 0
BBX 4 8 1 -2
BITMAP
80
F0
F0
F0
F0
30
30
30
ENDCHAR
STARTCHAR hyphen
ENCODING 45
SWIDTH 478 0
DWIDTH 8 0
BBX 6 3 1 5
BITMAP
FC
F8
F8
ENDCHAR
STARTCHAR period
ENCODING 46
SWIDTH 374 0
DWIDTH 6 0
BBX 4 5 1 1
BITMAP
70
F0
F0
F0
F0
ENDCHAR
STARTCHAR slash
ENCODING 47
SWIDTH 291 0
DWIDTH 5 0
BBX 5 15 0 -2
BITMAP
18
10
10
10
30
20
20
60
60
40
40
40
80
80
80
ENDCHAR
STARTCHAR zero
ENCODING 48
SWIDTH 528 0
DWIDTH 8 0
BBX 7 13 1 -1
BITMAP
38
FC
FE
FE
FE
FE
CE
CE
CC
CC
FC
78
30
ENDCHAR
STARTCHAR one
ENCODING 49
SWIDTH 366 0
DWIDTH 6 0
BBX 5 12 0 0
BITMAP
18
F8
F8
38
38
38
38
38
38
38
38
38
ENDCHAR
STARTCHAR two
ENCODING 50
SWIDTH 575 0
DWIDTH 9 0
BBX 8 14 1 -2
BITMAP
38
FC
FE
FE
FE
FE
CE
3C
1C
38
FF
FF
F7
02
ENDCHAR
STARTCHAR three
ENCODING 51
SWIDTH 517 0
DWIDTH 8 0
BBX 7 13 0 -1
BITMAP
38
7C
FE
7E
7E
7E
6E
1E
1E
06
36
3E
1C
ENDCHAR
STARTCHAR four
ENCODING 52
SWIDTH 466 0
DWIDTH 7 0
BBX 6 16 1 -4
BITMAP
FC
70
F0
F0
E0
E0
E0
FC
F8
F8
FC
FC
1C
08
08
08
ENDCHAR
STARTCHAR five
ENCODING 53
SWIDTH 583 0
DWIDTH 9 0
BBX 8 13 1 -1
BITMAP
FF
FF
FF
FF
FE
DE
E0
FC
FC
0C
6C
3C
38
ENDCHAR
STARTCHAR six
ENCODING 54
SWIDTH 582 0
DWIDTH 9 0
BBX 8 13 1 -1
BITMAP
78
FE
FE
FF
FF
FE
EE
E6
7E
66
66
7E
3E
ENDCHAR
STARTCHAR seven
ENCODING 55
SWIDTH 624 0
DWIDTH 10 0
BBX 10 14 0 -2
BITMAP
7FC0
FFC0
7F80
7F80
7F80
7F00
0380
0700
0600
0600
0C00
0C00
1800
0800
ENDCHAR
STARTCHAR eight
ENCODING 56
SWIDTH 459 0
DWIDTH 7 0
BBX 6 14 1 -2
BITMAP
78
FC
FC
FC
F8
D8
D8
78
78
58
58
78
50
20
ENDCHAR
STARTCHAR nine
ENCODING 57
SWIDTH 584 0
DWIDTH 9 0
BBX 8 14 1 -2
BITMAP
3C
7E
FE
FE
FF
EF
EF
FE
7E
6E
EC
7C
54
10
ENDCHAR
STARTCHAR colon
ENCODING 58
SWIDTH 386 0
DWIDTH 6 0
BBX 4 13 1 1
BITMAP
20
F0
F0
F0
F0
00
00
00
70
F0
F0
F0
F0
ENDCHAR
STARTCHAR semicolon
ENCODING 59
SWIDTH 375 0
DWIDTH 6 0
BBX 5 16 0 -2
BITMAP
98
78
78
78
78
40
00
00
40
78
78
78
78
18
18
18
ENDCHAR
STARTCHAR less
ENCODING 60
SWIDTH 459 0
DWIDTH 7 0
BBX 7 9 0 1
BITMAP
3E
3C
38
78
F0
78
38
1C
0E
ENDCHAR
STARTCHAR equal
ENCODING 61
SWIDTH 485 0
DWIDTH 8 0
BBX 6 5 1 5
BITMAP
FC
FC
00
B4
FC
ENDCHAR
STARTCHAR greater
ENCODING 62
SWIDTH 432 0
DWIDTH 7 0
BBX 6 9 0 1
BITMAP
F8
78
38
1C
1C
1C
38
78
70
ENDCHAR
STARTCHAR question
ENCODING 63
SWIDTH 577 0
DWIDTH 9 0
BBX 7 14 1 -2
BITMAP
7C
FE
FE
FE
EE
0E
1C
1C
18
08
00
38
38
38
ENDCHAR
STARTCHAR at
ENCODING 64
SWIDTH 930 0
DWIDTH 15 0
BBX 14 18 0 -4
BITMAP
0780
0FC0
1C70
33B0
2FD8
6FCC
4FCC
4ECC
C6CC
49CC
46CC
64EC
67FC
67B8
3000
1800
0FC0
0200
ENDCHAR
STARTCHAR A
ENCODING 65
SWIDTH 494 0
DWIDTH 8 0
BBX 8 15 0 -3
BITMAP
B9
7E
3C
3C
3C
3C
3C
3C
2C
3C
3C
2C
28
28
08
ENDCHAR
STARTCHAR B
ENCODING 66
SWIDTH 517 0
DWIDTH 8 0
BBX 8 13 0 -1
BITMAP
BE
7F
3F
3F
3E
36
36
3E
3E
36
36
3E
34
ENDCHAR
STARTCHAR C
ENCODING 67
SWIDTH 504 0
DWIDTH 8 0
BBX 8 14 0 -2
BITMAP
3C
7E
7F
FF
FF
77
76
70
70
76
3E
3C
14
18
ENDCHAR
STARTCHAR D
ENCODING 68
SWIDTH 522 0
DWIDTH 8 0
BBX 8 14 0 -2
BITMAP
9C
7E
7F
7F
3F
3F
33
32
32
36
3E
3E
28
28
ENDCHAR
STARTCHAR E
ENCODING 69
SWIDTH 570 0
DWIDTH 9 0
BBX 9 13 0 -1
BITMAP
FE80
7F00
7F00
3F00
3E00
3200
3000
3C00
3C00
3000
3E00
2C00
2A00
ENDCHAR
STARTCHAR F
ENCODING 70
SWIDTH 559 0
DWIDTH 9 0
BBX 9 13 0 -1
BITMAP
FE80
7F00
3F00
3E00
3E00
3E00
3800
3E00
3E00
3800
3800
3800
3800
ENDCHAR
STARTCHAR G
ENCODING 71
SWIDTH 499 0
DWIDTH 8 0
BBX 7 14 1 -2
BITMAP
30
FC
FC
FE
FE
DC
CC
D0
DC
FC
EC
7C
38
20
ENDCHAR
STARTCHAR H
ENCODING 72
SWIDTH 726 0
DWIDTH 12 0
BBX 11 15 0 -3
BITMAP
9BC0
79E0
79C0
39C0
39C0
3980
3B80
3F80
3F80
1B80
1B80
1B00
2300
0000
0400
ENDCHAR
STARTCHAR I
ENCODING 73
SWIDTH 401 0
DWIDTH 6 0
BBX 6 13 0 -1
BITMAP
FC
78
38
38
38
38
38
38
38
38
38
38
30
ENDCHAR
STARTCHAR J
ENCODING 74
SWIDTH 455 0
DWIDTH 7 0
BBX 7 13 0 -1
BITMAP
3E
1C
1C
1C
1C
1C
18
18
D8
D8
F8
F0
60
ENDCHAR
STARTCHAR K
ENCODING 75
SWIDTH 580 0
DWIDTH 9 0
BBX 9 13 0 -1
BITMAP
F280
7700
3600
3E00
3C00
3C00
3E00
3E00
1E00
1E00
1600
1A00
1E00
ENDCHAR
STARTCHAR L
ENCODING 76
SWIDTH 416 0
DWIDTH 7 0
BBX 7 13 0 -1
BITMAP
FC
78
70
70
70
70
30
30
30
30
3E
3E
2A
ENDCHAR
STARTCHAR M
ENCODING 77
SWIDTH 740 0
DWIDTH 12 0
BBX 11 13 0 -1
BITMAP
FBE0
7BC0
7FC0
3FC0
3FC0
3FC0
3FC0
37C0
3FC0
3FC0
1FC0
2D80
1080
ENDCHAR
STARTCHAR N
ENCODING 78
SWIDTH 610 0
DWIDTH 10 0
BBX 9 15 0 -3
BITMAP
7700
FB80
7B00
7B00
3F00
3F00
3F00
3F00
3F00
3700
3600
3600
1600
2C00
0800
ENDCHAR
STARTCHAR O
ENCODING 79
SWIDTH 504 0
DWIDTH 8 0
BBX 8 13 0 -1
BITMAP
18
7E
7F
FF
7F
7F
67
67
66
76
7E
3C
1C
ENDCHAR
STARTCHAR P
ENCODING 80
SWIDTH 545 0
DWIDTH 9 0
BBX 8 13 0 -1
BITMAP
FE
7F
3F
3F
3F
3B
3B
3B
1E
1C
18
18
18
ENDCHAR
STARTCHAR Q
ENCODING 81
SWIDTH 520 0
DWIDTH 8 0
BBX 8 14 0 -2
BITMAP
1C
7E
7F
FF
FF
77
77
77
77
77
3E
1F
0F
02
ENDCHAR
STARTCHAR R
ENCODING 82
SWIDTH 599 0
DWIDTH 10 0
BBX 9 13 0 -1
BITMAP
3E00
FF80
3F80
3F80
3F80
3B80
3B80
3F80
1F00
1B00
1B00
1B00
1700
ENDCHAR
STARTCHAR S
ENCODING 83
SWIDTH 504 0
DWIDTH 8 0
BBX 8 13 0 -1
BITMAP
1C
7E
7F
7F
FF
FF
71
7C
3E
36
7E
3C
2C
ENDCHAR
STARTCHAR T
ENCODING 84
SWIDTH 622 0
DWIDTH 10 0
BBX 9 14 0 -2
BITMAP
BE00
7F80
7F80
3F80
3F80
3F00
0C00
0E00
0E00
0C00
0C00
0C00
0C00
0C00
ENDCHAR
STARTCHAR U
ENCODING 85
SWIDTH 637 0
DWIDTH 10 0
BBX 10 13 0 -1
BITMAP
FB00
7BC0
7380
3B80
3B00
3B00
3300
3300
3B00
3F00
3F00
1600
1400
ENDCHAR
STARTCHAR V
ENCODING 86
SWIDTH 570 0
DWIDTH 9 0
BBX 9 13 0 -1
BITMAP
F780
7700
3700
3700
3600
3600
3E00
3E00
3C00
3C00
1C00
1C00
1800
ENDCHAR
STARTCHAR W
ENCODING 87
SWIDTH 777 0
DWIDTH 12 0
BBX 13 12 0 0
BITMAP
12E0
F6F8
3FE0
3FC0
3FC0
1F80
1F80
0F80
0F80
0F80
0D00
0700
ENDCHAR
STARTCHAR X
ENCODING 88
SWIDTH 587 0
DWIDTH 9 0
BBX 10 13 0 -1
BITMAP
BE00
77C0
3E00
1E00
1E00
1C00
1C00
0C00
1C00
1C00
1E00
1600
2A00
ENDCHAR
STARTCHAR Y
ENCODING 89
SWIDTH 688 0
DWIDTH 11 0
BBX 11 13 0 -1
BITMAP
F900
39E0
1FC0
0F80
0F00
0700
0700
0700
0700
0300
0300
0300
0200
ENDCHAR
STARTCHAR Z
ENCODING 90
SWIDTH 695 0
DWIDTH 11 0
BBX 10 13 1 -1
BITMAP
7E00
FFC0
FF80
7F80
7F00
6F00
4C00
1C00
1800
3000
3E00
3C00
0400
ENDCHAR
STARTCHAR bracketleft
ENCODING 91
SWIDTH 410 0
DWIDTH 7 0
BBX 5 15 1 -1
BITMAP
F8
F8
F8
E8
E0
C0
C0
C0
E0
E0
E0
E0
F8
F8
10
ENDCHAR
STARTCHAR backslash
ENCODING 92
SWIDTH 292 0
DWIDTH 5 0
BBX 5 15 0 -2
BITMAP
80
C0
C0
40
40
60
20
20
30
30
10
10
10
08
10
ENDCHAR
STARTCHAR bracketright
ENCODING 93
SWIDTH 407 0
DWIDTH 7 0
BBX 6 14 0 0
BITMAP
78
F8
F8
38
18
18
18
1C
1C
1C
1C
18
F8
FC
ENDCHAR
STARTCHAR asciicircum
ENCODING 94
SWIDTH 523 0
DWIDTH 8 0
BBX 7 6 1 11
BITMAP
78
78
7C
CC
CE
84
ENDCHAR
STARTCHAR underscore
ENCODING 95
SWIDTH 452 0
DWIDTH 7 0
BBX 5 2 1 0
BITMAP
F8
F8
ENDCHAR
STARTCHAR grave
ENCODING 96
SWIDTH 444 0
DWIDTH 7 0
BBX 5 4 1 12
BITMAP
40
60
F8
08
ENDCHAR
STARTCHAR a
ENCODING 97
SWIDTH 479 0
DWIDTH 8 0
BBX 8 13 0 -1
BITMAP
FF
7E
3C
3C
3C
3C
3C
3E
3E
2C
7C
3C
2C
ENDCHAR
STARTCHAR b
ENCODING 98
SWIDTH 610 0
DWIDTH 10 0
BBX 9 13 0 -1
BITMAP
1F00
FF80
7F80
3F80
3F80
3B80
3B80
3F00
1F00
1B00
1B00
1F00
1F00
ENDCHAR
STARTCHAR c
ENCODING 99
SWIDTH 534 0
DWIDTH 9 0
BBX 8 13 0 -1
BITMAP
1C
7F
7F
FF
FF
77
77
70
70
36
36
3E
1C
ENDCHAR
STARTCHAR d
ENCODING 100
SWIDTH 573 0
DWIDTH 9 0
BBX 9 14 0 -2
BITMAP
BC00
7F00
7F80
3F80
3F80
3F80
3B80
3B00
1B00
1B00
1B00
1E00
1600
1400
ENDCHAR
STARTCHAR e
ENCODING 101
SWIDTH 632 0
DWIDTH 10 0
BBX 10 13 0 -1
BITMAP
3F40
FF80
7F80
3F00
3F00
3F00
3800
3E00
3E00
3A00
1F00
1E00
1500
ENDCHAR
STARTCHAR f
ENCODING 102
SWIDTH 559 0
DWIDTH 9 0
BBX 9 14 0 -2
BITMAP
FE80
7F00
3F00
3E00
3E00
3E00
3800
3E00
3E00
3800
3800
3800
3800
1800
ENDCHAR
STARTCHAR g
ENCODING 103
SWIDTH 546 0
DWIDTH 9 0
BBX 8 13 0 -1
BITMAP
3C
7F
7F
FF
7F
7F
77
71
77
37
33
3F
1E
ENDCHAR
STARTCHAR h
ENCODING 104
SWIDTH 730 0
DWIDTH 12 0
BBX 12 13 0 -1
BITMAP
9DF0
79E0
79C0
39C0
39C0
39C0
3F80
3F80
3B80
3B80
1B80
1B00
2300
ENDCHAR
STARTCHAR i
ENCODING 105
SWIDTH 412 0
DWIDTH 7 0
BBX 6 13 0 -1
BITMAP
FC
7C
38
38
38
38
38
38
38
38
30
10
08
ENDCHAR
STARTCHAR j
ENCODING 106
SWIDTH 458 0
DWIDTH 7 0
BBX 7 13 0 -1
BITMAP
3A
3C
1C
1C
1C
1C
1C
1C
DC
DC
F8
78
18
ENDCHAR
STARTCHAR k
ENCODING 107
SWIDTH 636 0
DWIDTH 10 0
BBX 10 13 0 -1
BITMAP
BBC0
7B80
3B00
3E00
3E00
3E00
1C00
1C00
1E00
1E00
1B00
1B00
1A00
ENDCHAR
STARTCHAR l
ENCODING 108
SWIDTH 438 0
DWIDTH 7 0
BBX 8 13 0 -1
BITMAP
FE
78
78
38
38
38
38
38
38
39
1E
1E
22
ENDCHAR
STARTCHAR m
ENCODING 109
SWIDTH 770 0
DWIDTH 12 0
BBX 12 13 0 -1
BITMAP
1DF0
FDE0
7FE0
7FC0
3FC0
3FC0
3FC0
37C0
3780
3580
3D80
3580
2080
ENDCHAR
STARTCHAR n
ENCODING 110
SWIDTH 664 0
DWIDTH 11 0
BBX 11 14 0 -2
BITMAP
FBE0
7BC0
7F80
7F80
7F80
3F80
3F80
3F00
3700
3700
3700
3700
3600
0200
ENDCHAR
STARTCHAR o
ENCODING 111
SWIDTH 545 0
DWIDTH 9 0
BBX 8 13 0 -1
BITMAP
1C
7F
7F
FF
7F
77
77
77
77
76
3E
3E
14
ENDCHAR
STARTCHAR p
ENCODING 112
SWIDTH 557 0
DWIDTH 9 0
BBX 9 13 0 -1
BITMAP
FE00
7F00
3F80
3F00
3F00
3B00
3B00
3B00
3F00
3A00
1800
1800
1800
ENDCHAR
STARTCHAR q
ENCODING 113
SWIDTH 562 0
DWIDTH 9 0
BBX 9 14 0 -2
BITMAP
1E00
7F00
7F00
FF80
FF80
7780
7300
7300
7300
3F00
3F00
1F80
0B00
0100
ENDCHAR
STARTCHAR r
ENCODING 114
SWIDTH 616 0
DWIDTH 10 0
BBX 10 13 0 -1
BITMAP
BE00
7F80
3FC0
3F80
3F80
3B80
3B80
3F80
1F00
1B00
1B00
1B00
1B00
ENDCHAR
STARTCHAR s
ENCODING 115
SWIDTH 481 0
DWIDTH 8 0
BBX 7 13 0 -1
BITMAP
1C
7E
7E
FE
FE
FE
76
7C
3C
0C
7E
3C
38
ENDCHAR
STARTCHAR t
ENCODING 116
SWIDTH 683 0
DWIDTH 11 0
BBX 10 14 0 -2
BITMAP
3F80
FFC0
7F80
3F80
3F80
3F80
4E00
0E00
0600
0600
0600
0600
0600
0200
ENDCHAR
STARTCHAR u
ENCODING 117
SWIDTH 708 0
DWIDTH 11 0
BBX 12 12 0 0
BITMAP
B900
79F0
79C0
39C0
39C0
3980
3980
3B80
3B80
1B80
1F80
0B00
ENDCHAR
STARTCHAR v
ENCODING 118
SWIDTH 644 0
DWIDTH 10 0
BBX 10 13 0 -1
BITMAP
FBC0
7B80
3B80
3B00
3B00
3B00
1B00
1B00
1E00
0E00
0E00
0E00
0C00
ENDCHAR
STARTCHAR w
ENCODING 119
SWIDTH 704 0
DWIDTH 11 0
BBX 12 12 0 0
BITMAP
3480
F6F0
37C0
37C0
3F80
1F80
1F80
1F80
0F80
0F80
0F00
0D00
ENDCHAR
STARTCHAR x
ENCODING 120
SWIDTH 599 0
DWIDTH 10 0
BBX 10 13 0 -1
BITMAP
B700
7FC0
3E00
1E00
1E00
1E00
1C00
0C00
1C00
1C00
1E00
1600
1A00
ENDCHAR
STARTCHAR y
ENCODING 121
SWIDTH 604 0
DWIDTH 10 0
BBX 10 13 0 -1
BITMAP
F200
73C0
1F00
1E00
1E00
0E00
0E00
0C00
0C00
0C00
0C00
0C00
0C00
ENDCHAR
STARTCHAR z
ENCODING 122
SWIDTH 622 0
DWIDTH 10 0
BBX 8 13 1 -1
BITMAP
7E
FF
FF
7E
7E
6E
4C
18
18
30
3C
3C
24
ENDCHAR
STARTCHAR braceleft
ENCODING 123
SWIDTH 372 0
DWIDTH 6 0
BBX 5 16 1 -2
BITMAP
08
38
78
70
F0
F0
E0
E0
C0
C0
C0
E0
E0
70
70
30
ENDCHAR
STARTCHAR bar
ENCODING 124
SWIDTH 208 0
DWIDTH 3 0
BBX 1 15 1 -2
BITMAP
80
80
80
80
80
80
80
80
80
80
80
80
80
80
80
ENDCHAR
STARTCHAR braceright
ENCODING 125
SWIDTH 338 0
DWIDTH 5 0
BBX 5 15 0 -2
BITMAP
E0
70
78
78
78
38
38
38
30
30
30
30
30
E0
C0
ENDCHAR
STARTCHAR asciitilde
ENCODING 126
SWIDTH 535 0
DWIDTH 9 0
BBX 7 4 1 9
BITMAP
08
DC
FE
64
ENDCHAR
STARTCHAR exclamdown
ENCODING 161
SWIDTH 347 0
DWIDTH 6 0
BBX 5 19 0 1
BITMAP
68
78
78
78
F8
00
00
30
30
30
30
30
70
70
70
78
78
78
F8
ENDCHAR
STARTCHAR cent
ENCODING 162
SWIDTH 552 0
DWIDTH 9 0
BBX 8 23 0 -6
BITMAP
08
08
08
08
08
1E
7F
7F
FF
7F
77
77
70
70
36
36
3E
1C
08
08
08
08
08
ENDCHAR
STARTCHAR sterling
ENCODING 163
SWIDTH 589 0
DWIDTH 9 0
BBX 8 13 1 -1
BITMAP
78
FE
FE
FF
FF
EF
EE
E2
F0
60
7E
7C
B4
ENDCHAR
STARTCHAR yen
ENCODING 165
SWIDTH 692 0
DWIDTH 11 0
BBX 11 13 0 1
BITMAP
F100
7BE0
3B80
1F80
0F00
4FC0
7F40
0700
7FC0
0600
0600
0600
0500
ENDCHAR
STARTCHAR brokenbar
ENCODING 166
SWIDTH 201 0
DWIDTH 3 0
BBX 1 15 1 -2
BITMAP
80
80
80
80
80
00
00
00
00
80
80
80
80
80
80
ENDCHAR
STARTCHAR section
ENCODING 167
SWIDTH 477 0
DWIDTH 8 0
BBX 7 15 0 -3
BITMAP
1C
3E
7E
7E
7E
34
3C
7E
E4
EC
7C
38
6C
78
38
ENDCHAR
STARTCHAR dieresis
ENCODING 168
SWIDTH 633 0
DWIDTH 10 0
BBX 8 4 1 13
BITMAP
6F
E7
E7
E7
ENDCHAR
STARTCHAR copyright
ENCODING 169
SWIDTH 783 0
DWIDTH 13 0
BBX 11 13 1 -1
BITMAP
3F00
6480
DF40
9F20
9F20
9F20
9B20
9820
9B20
9A40
5E40
6580
3F00
ENDCHAR
STARTCHAR guillemotleft
ENCODING 171
SWIDTH 759 0
DWIDTH 12 0
BBX 11 9 1 1
BITMAP
39E0
33C0
7380
E700
E700
E700
7380
39C0
3DE0
ENDCHAR
STARTCHAR uni00AD
ENCODING 173
SWIDTH 446 0
DWIDTH 7 0
BBX 5 2 1 5
BITMAP
D8
F8
ENDCHAR
STARTCHAR registered
ENCODING 174
SWIDTH 780 0
DWIDTH 12 0
BBX 12 13 0 -1
BITMAP
1F80
3040
7F20
4FA0
4F90
CD90
4D90
4F10
4510
6790
26A0
18C0
0F80
ENDCHAR
STARTCHAR macron
ENCODING 175
SWIDTH 446 0
DWIDTH 7 0
BBX 5 2 1 5
BITMAP
D8
F8
ENDCHAR
STARTCHAR acute
ENCODING 180
SWIDTH 439 0
DWIDTH 7 0
BBX 5 4 1 12
BITMAP
10
30
F8
80
ENDCHAR
STARTCHAR mu
ENCODING 181
SWIDTH 679 0
DWIDTH 11 0
BBX 11 12 0 0
BITMAP
BB00
7BE0
7BC0
7BC0
3B80
3B80
3B80
3B80
3B80
3B80
1F00
1B00
ENDCHAR
STARTCHAR paragraph
ENCODING 182
SWIDTH 591 0
DWIDTH 9 0
BBX 10 13 0 -1
BITMAP
3F40
7F80
FF00
7D00
7D00
7D00
7D00
3500
0500
0500
0500
0A00
0A00
ENDCHAR
STARTCHAR periodcentered
ENCODING 183
SWIDTH 388 0
DWIDTH 6 0
BBX 4 5 1 4
BITMAP
20
F0
F0
F0
F0
ENDCHAR
STARTCHAR cedilla
ENCODING 184
SWIDTH 270 0
DWIDTH 4 0
BBX 3 5 1 -5
BITMAP
C0
80
E0
60
E0
ENDCHAR
STARTCHAR guillemotright
ENCODING 187
SWIDTH 767 0
DWIDTH 12 0
BBX 12 9 0 1
BITMAP
F380
79C0
38C0
1CE0
1C70
1CF0
38E0
79C0
73C0
ENDCHAR
STARTCHAR Agrave
ENCODING 192
SWIDTH 494 0
DWIDTH 8 0
BBX 9 20 -1 -3
BITMAP
6000
7000
F800
0C00
0000
5C80
3F00
1E00
1E00
1E00
1E00
1E00
1E00
1600
1E00
1E00
1600
1400
1400
0400
ENDCHAR
STARTCHAR Aacute
ENCODING 193
SWIDTH 494 0
DWIDTH 8 0
BBX 9 20 0 -3
BITMAP
0100
0380
0F80
0800
0000
B900
7E00
3C00
3C00
3C00
3C00
3C00
3C00
2C00
3C00
3C00
2C00
2800
2800
0800
ENDCHAR
STARTCHAR Acircumflex
ENCODING 194
SWIDTH 494 0
DWIDTH 8 0
BBX 8 22 0 -3
BITMAP
38
3C
7C
6E
C7
42
00
B9
7E
3C
3C
3C
3C
3C
3C
2C
3C
3C
2C
28
28
08
ENDCHAR
STARTCHAR Atilde
ENCODING 195
SWIDTH 494 0
DWIDTH 8 0
BBX 8 19 0 -3
BITMAP
4E
FF
76
00
B9
7E
3C
3C
3C
3C
3C
3C
2C
3C
3C
2C
28
28
08
ENDCHAR
STARTCHAR Adieresis
ENCODING 196
SWIDTH 494 0
DWIDTH 8 0
BBX 8 20 0 -3
BITMAP
6F
E7
E7
E7
00
B9
7E
3C
3C
3C
3C
3C
3C
2C
3C
3C
2C
28
28
08
ENDCHAR
STARTCHAR Aring
ENCODING 197
SWIDTH 494 0
DWIDTH 8 0
BBX 8 20 0 -3
BITMAP
3C
24
24
38
00
B9
7E
3C
3C
3C
3C
3C
3C
2C
3C
3C
2C
28
28
08
ENDCHAR
STARTCHAR AE
ENCODING 198
SWIDTH 733 0
DWIDTH 12 0
BBX 11 15 0 -3
BITMAP
BFC0
7FE0
3FC0
3FC0
3FC0
3EC0
3E00
3F80
2F80
3E00
3F80
2F80
2A80
2A80
0800
ENDCHAR
STARTCHAR Ccedilla
ENCODING 199
SWIDTH 504 0
DWIDTH 8 0
BBX 8 19 0 -7
BITMAP
3C
7E
7F
FF
FF
77
76
70
70
76
3E
3C
14
18
06
04
06
02
06
ENDCHAR
STARTCHAR Egrave
ENCODING 200
SWIDTH 570 0
DWIDTH 9 0
BBX 9 18 0 -1
BITMAP
4000
7000
F800
0800
0000
FE80
7F00
7F00
3F00
3E00
3200
3000
3C00
3C00
3000
3E00
2C00
2A00
ENDCHAR
STARTCHAR Eacute
ENCODING 201
SWIDTH 570 0
DWIDTH 9 0
BBX 10 18 0 -1
BITMAP
0080
0380
07C0
0400
0000
FE80
7F00
7F00
3F00
3E00
3200
3000
3C00
3C00
3000
3E00
2C00
2A00
ENDCHAR
STARTCHAR Ecircumflex
ENCODING 202
SWIDTH 570 0
DWIDTH 9 0
BBX 9 20 0 -1
BITMAP
1C00
1C00
3E00
3700
6300
4100
0000
FE80
7F00
7F00
3F00
3E00
3200
3000
3C00
3C00
3000
3E00
2C00
2A00
ENDCHAR
STARTCHAR Edieresis
ENCODING 203
SWIDTH 570 0
DWIDTH 9 0
BBX 9 18 0 -1
BITMAP
5700
7780
7780
7780
0000
FE80
7F00
7F00
3F00
3E00
3200
3000
3C00
3C00
3000
3E00
2C00
2A00
ENDCHAR
STARTCHAR Igrave
ENCODING 204
SWIDTH 401 0
DWIDTH 6 0
BBX 8 18 -2 -1
BITMAP
20
70
FC
0C
00
3F
1E
0E
0E
0E
0E
0E
0E
0E
0E
0E
0E
0C
ENDCHAR
STARTCHAR Iacute
ENCODING 205
SWIDTH 401 0
DWIDTH 6 0
BBX 9 18 0 -1
BITMAP
0200
0700
0F80
1800
0000
FC00
7800
3800
3800
3800
3800
3800
3800
3800
3800
3800
3800
3000
ENDCHAR
STARTCHAR Icircumflex
ENCODING 206
SWIDTH 401 0
DWIDTH 6 0
BBX 8 20 -1 -1
BITMAP
38
3C
3E
66
47
C2
00
7E
3C
1C
1C
1C
1C
1C
1C
1C
1C
1C
1C
18
ENDCHAR
STARTCHAR Idieresis
ENCODING 207
SWIDTH 401 0
DWIDTH 6 0
BBX 8 18 -1 -1
BITMAP
67
E7
E7
E7
00
7E
3C
1C
1C
1C
1C
1C
1C
1C
1C
1C
1C
18
ENDCHAR
STARTCHAR Eth
ENCODING 208
SWIDTH 530 0
DWIDTH 9 0
BBX 8 14 1 -2
BITMAP
3C
FE
7F
7F
7F
77
76
FE
36
36
3E
3C
28
28
ENDCHAR
STARTCHAR Ntilde
ENCODING 209
SWIDTH 610 0
DWIDTH 10 0
BBX 9 19 0 -3
BITMAP
2700
7F00
3B00
0000
7700
FB80
7B00
7B00
3F00
3F00
3F00
3F00
3F00
3700
3600
3600
1600
2C00
0800
ENDCHAR
STARTCHAR Ograve
ENCODING 210
SWIDTH 504 0
DWIDTH 8 0
BBX 9 18 -1 -1
BITMAP
6000
7000
F800
0C00
0000
0C00
3F00
3F80
7F80
3F80
3F80
3380
3380
3300
3B00
3F00
1E00
0E00
ENDCHAR
STARTCHAR Oacute
ENCODING 211
SWIDTH 504 0
DWIDTH 8 0
BBX 9 18 0 -1
BITMAP
0100
0380
0F80
0800
0000
1800
7E00
7F00
FF00
7F00
7F00
6700
6700
6600
7600
7E00
3C00
1C00
ENDCHAR
STARTCHAR Ocircumflex
ENCODING 212
SWIDTH 504 0
DWIDTH 8 0
BBX 8 20 0 -1
BITMAP
38
3C
7C
6E
C6
42
00
18
7E
7F
FF
7F
7F
67
67
66
76
7E
3C
1C
ENDCHAR
STARTCHAR Otilde
ENCODING 213
SWIDTH 504 0
DWIDTH 8 0
BBX 8 17 0 -1
BITMAP
4C
FE
76
00
18
7E
7F
FF
7F
7F
67
67
66
76
7E
3C
1C
ENDCHAR
STARTCHAR Odieresis
ENCODING 214
SWIDTH 504 0
DWIDTH 8 0
BBX 8 18 0 -1
BITMAP
AF
E7
E7
E7
00
18
7E
7F
FF
7F
7F
67
67
66
76
7E
3C
1C
ENDCHAR
STARTCHAR multiply
ENCODING 215
SWIDTH 359 0
DWIDTH 6 0
BBX 6 6 0 3
BITMAP
48
FC
78
78
FC
48
ENDCHAR
STARTCHAR Oslash
ENCODING 216
SWIDTH 658 0
DWIDTH 11 0
BBX 11 13 0 -1
BITMAP
1C00
3F20
7F40
7F80
7F00
7700
7700
7F00
3700
3700
7F00
BE00
9600
ENDCHAR
STARTCHAR Ugrave
ENCODING 217
SWIDTH 637 0
DWIDTH 10 0
BBX 10 18 0 -1
BITMAP
2000
7000
FC00
0400
0000
FB00
7BC0
7380
3B80
3B00
3B00
3300
3300
3B00
3F00
3F00
1600
1400
ENDCHAR
STARTCHAR Uacute
ENCODING 218
SWIDTH 637 0
DWIDTH 10 0
BBX 11 18 0 -1
BITMAP
0080
01C0
03E0
0600
0000
FB00
7BC0
7380
3B80
3B00
3B00
3300
3300
3B00
3F00
3F00
1600
1400
ENDCHAR
STARTCHAR Ucircumflex
ENCODING 219
SWIDTH 637 0
DWIDTH 10 0
BBX 10 20 0 -1
BITMAP
0E00
1E00
1F00
3300
2180
6100
0000
FB00
7BC0
7380
3B80
3B00
3B00
3300
3300
3B00
3F00
3F00
1600
1400
ENDCHAR
STARTCHAR Udieresis
ENCODING 220
SWIDTH 637 0
DWIDTH 10 0
BBX 10 18 0 -1
BITMAP
3380
7380
7380
7380
0000
FB00
7BC0
7380
3B80
3B00
3B00
3300
3300
3B00
3F00
3F00
1600
1400
ENDCHAR
STARTCHAR Yacute
ENCODING 221
SWIDTH 688 0
DWIDTH 11 0
BBX 11 18 0 -1
BITMAP
0040
00C0
03E0
0200
0000
F900
39E0
1FC0
0F80
0F00
0700
0700
0700
0700
0300
0300
0300
0200
ENDCHAR
STARTCHAR Thorn
ENCODING 222
SWIDTH 521 0
DWIDTH 8 0
BBX 8 17 0 -2
BITMAP
68
F0
F0
7E
7F
7F
7F
7F
73
73
72
3E
3A
30
30
30
30
ENDCHAR
STARTCHAR germandbls
ENCODING 223
SWIDTH 546 0
DWIDTH 9 0
BBX 7 13 1 -1
BITMAP
3C
FE
FE
FE
FE
EE
EC
FC
FC
EC
EC
7C
B8
ENDCHAR
STARTCHAR agrave
ENCODING 224
SWIDTH 479 0
DWIDTH 8 0
BBX 9 18 -1 -1
BITMAP
2000
7000
F800
0C00
0000
7F80
3F00
1E00
1E00
1E00
1E00
1E00
1F00
1F00
1600
3E00
1E00
1600
ENDCHAR
STARTCHAR aacute
ENCODING 225
SWIDTH 479 0
DWIDTH 8 0
BBX 10 18 0 -1
BITMAP
0100
0380
07C0
0C00
0000
FF00
7E00
3C00
3C00
3C00
3C00
3C00
3E00
3E00
2C00
7C00
3C00
2C00
ENDCHAR
STARTCHAR acircumflex
ENCODING 226
SWIDTH 479 0
DWIDTH 8 0
BBX 8 20 0 -1
BITMAP
38
3C
3E
66
47
C2
00
FF
7E
3C
3C
3C
3C
3C
3E
3E
2C
7C
3C
2C
ENDCHAR
STARTCHAR atilde
ENCODING 227
SWIDTH 479 0
DWIDTH 8 0
BBX 8 17 0 -1
BITMAP
4E
FF
76
00
FF
7E
3C
3C
3C
3C
3C
3E
3E
2C
7C
3C
2C
ENDCHAR
STARTCHAR adieresis
ENCODING 228
SWIDTH 479 0
DWIDTH 8 0
BBX 8 18 0 -1
BITMAP
67
E7
E7
E7
00
FF
7E
3C
3C
3C
3C
3C
3E
3E
2C
7C
3C
2C
ENDCHAR
STARTCHAR aring
ENCODING 229
SWIDTH 479 0
DWIDTH 8 0
BBX 8 18 0 -1
BITMAP
3C
24
24
3C
00
FF
7E
3C
3C
3C
3C
3C
3E
3E
2C
7C
3C
2C
ENDCHAR
STARTCHAR ae
ENCODING 230
SWIDTH 755 0
DWIDTH 12 0
BBX 12 13 0 -1
BITMAP
FFD0
7FE0
3FE0
3FC0
3FC0
3FC0
3E00
3F80
3F80
3E80
3FC0
3F80
2D40
ENDCHAR
STARTCHAR ccedilla
ENCODING 231
SWIDTH 534 0
DWIDTH 9 0
BBX 8 18 0 -6
BITMAP
1C
7F
7F
FF
FF
77
77
70
70
36
36
3E
1C
04
0C
0E
02
0E
ENDCHAR
STARTCHAR egrave
ENCODING 232
SWIDTH 632 0
DWIDTH 10 0
BBX 10 18 0 -1
BITMAP
2000
7000
F800
0C00
0000
3F40
FF80
7F80
3F00
3F00
3F00
3800
3E00
3E00
3A00
1F00
1E00
1500
ENDCHAR
STARTCHAR eacute
ENCODING 233
SWIDTH 632 0
DWIDTH 10 0
BBX 11 18 0 -1
BITMAP
0080
01C0
07E0
0600
0000
3F40
FF80
7F80
3F00
3F00
3F00
3800
3E00
3E00
3A00
1F00
1E00
1500
ENDCHAR
STARTCHAR ecircumflex
ENCODING 234
SWIDTH 632 0
DWIDTH 10 0
BBX 10 20 0 -1
BITMAP
1C00
1E00
3E00
3700
6380
2100
0000
3F40
FF80
7F80
3F00
3F00
3F00
3800
3E00
3E00
3A00
1F00
1E00
1500
ENDCHAR
STARTCHAR edieresis
ENCODING 235
SWIDTH 632 0
DWIDTH 10 0
BBX 10 18 0 -1
BITMAP
3380
7380
7380
7380
0000
3F40
FF80
7F80
3F00
3F00
3F00
3800
3E00
3E00
3A00
1F00
1E00
1500
ENDCHAR
STARTCHAR igrave
ENCODING 236
SWIDTH 411 0
DWIDTH 7 0
BBX 7 18 -1 -1
BITMAP
40
E0
F8
08
00
7E
3E
1C
1C
1C
1C
1C
1C
1C
1C
18
08
04
ENDCHAR
STARTCHAR iacute
ENCODING 237
SWIDTH 411 0
DWIDTH 7 0
BBX 9 18 0 -1
BITMAP
0300
0700
0F80
1800
0000
FC00
7C00
3800
3800
3800
3800
3800
3800
3800
3800
3000
1000
0800
ENDCHAR
STARTCHAR icircumflex
ENCODING 238
SWIDTH 411 0
DWIDTH 7 0
BBX 7 20 0 -1
BITMAP
38
3C
7C
6E
C6
82
00
FC
7C
38
38
38
38
38
38
38
38
30
10
08
ENDCHAR
STARTCHAR idieresis
ENCODING 239
SWIDTH 411 0
DWIDTH 7 0
BBX 8 18 -1 -1
BITMAP
67
F7
F7
E7
00
7E
3E
1C
1C
1C
1C
1C
1C
1C
1C
18
08
04
ENDCHAR
STARTCHAR eth
ENCODING 240
SWIDTH 530 0
DWIDTH 9 0
BBX 8 14 1 -2
BITMAP
3C
FE
7F
7F
7F
77
76
FE
36
36
3E
3C
28
28
ENDCHAR
STARTCHAR ntilde
ENCODING 241
SWIDTH 664 0
DWIDTH 11 0
BBX 11 18 0 -2
BITMAP
3700
7F80
3F00
0000
FBE0
7BC0
7F80
7F80
7F80
3F80
3F80
3F00
3700
3700
3700
3700
3600
0200
ENDCHAR
STARTCHAR ograve
ENCODING 242
SWIDTH 545 0
DWIDTH 9 0
BBX 8 18 0 -1
BITMAP
40
E0
F8
08
00
1C
7F
7F
FF
7F
77
77
77
77
76
3E
3E
14
ENDCHAR
STARTCHAR oacute
ENCODING 243
SWIDTH 545 0
DWIDTH 9 0
BBX 10 18 0 -1
BITMAP
0180
0380
07C0
0C00
0000
1C00
7F00
7F00
FF00
7F00
7700
7700
7700
7700
7600
3E00
3E00
1400
ENDCHAR
STARTCHAR ocircumflex
ENCODING 244
SWIDTH 545 0
DWIDTH 9 0
BBX 8 20 0 -1
BITMAP
1C
3C
3E
66
63
42
00
1C
7F
7F
FF
7F
77
77
77
77
76
3E
3E
14
ENDCHAR
STARTCHAR otilde
ENCODING 245
SWIDTH 545 0
DWIDTH 9 0
BBX 8 17 0 -1
BITMAP
4E
FF
76
00
1C
7F
7F
FF
7F
77
77
77
77
76
3E
3E
14
ENDCHAR
STARTCHAR odieresis
ENCODING 246
SWIDTH 545 0
DWIDTH 9 0
BBX 8 18 0 -1
BITMAP
67
F7
F7
F7
00
1C
7F
7F
FF
7F
77
77
77
77
76
3E
3E
14
ENDCHAR
STARTCHAR oslash
ENCODING 248
SWIDTH 676 0
DWIDTH 11 0
BBX 10 13 0 -1
BITMAP
1C40
3F40
7F80
7F00
7F00
7700
7F00
7700
7700
3600
7E00
BE00
1400
ENDCHAR
STARTCHAR ugrave
ENCODING 249
SWIDTH 708 0
DWIDTH 11 0
BBX 12 17 0 0
BITMAP
3000
3800
7C00
0400
0000
B900
79F0
79C0
39C0
39C0
3980
3980
3B80
3B80
1B80
1F80
0B00
ENDCHAR
STARTCHAR uacute
ENCODING 250
SWIDTH 708 0
DWIDTH 11 0
BBX 12 17 0 0
BITMAP
0040
00C0
03E0
0200
0000
B900
79F0
79C0
39C0
39C0
3980
3980
3B80
3B80
1B80
1F80
0B00
ENDCHAR
STARTCHAR ucircumflex
ENCODING 251
SWIDTH 708 0
DWIDTH 11 0
BBX 12 19 0 0
BITMAP
0E00
0F00
1F00
1B80
3180
2080
0000
B900
79F0
79C0
39C0
39C0
3980
3980
3B80
3B80
1B80
1F80
0B00
ENDCHAR
STARTCHAR udieresis
ENCODING 252
SWIDTH 708 0
DWIDTH 11 0
BBX 12 17 0 0
BITMAP
29C0
3BC0
3BC0
3BC0
0000
B900
79F0
79C0
39C0
39C0
3980
3980
3B80
3B80
1B80
1F80
0B00
ENDCHAR
STARTCHAR yacute
ENCODING 253
SWIDTH 604 0
DWIDTH 10 0
BBX 10 18 0 -1
BITMAP
0080
01C0
07C0
0400
0000
F200
73C0
1F00
1E00
1E00
0E00
0E00
0C00
0C00
0C00
0C00
0C00
0C00
ENDCHAR
STARTCHAR thorn
ENCODING 254
SWIDTH 498 0
DWIDTH 8 0
BBX 7 17 0 -2
BITMAP
58
F0
F0
7E
7E
7E
7E
7E
76
76
76
3E
3C
30
30
30
30
ENDCHAR
STARTCHAR ydieresis
ENCODING 255
SWIDTH 604 0
DWIDTH 10 0
BBX 10 18 0 -1
BITMAP
3380
3B80
7B80
3B80
0000
F200
73C0
1F00
1E00
1E00
0E00
0E00
0C00
0C00
0C00
0C00
0C00
0C00
ENDCHAR
STARTCHAR Amacron
ENCODING 256
SWIDTH 494 0
DWIDTH 8 0
BBX 8 18 0 -3
BITMAP
6A
7E
00
B9
7E
3C
3C
3C
3C
3C
3C
2C
3C
3C
2C
28
28
08
ENDCHAR
STARTCHAR amacron
ENCODING 257
SWIDTH 479 0
DWIDTH 8 0
BBX 8 16 0 -1
BITMAP
6A
7E
00
FF
7E
3C
3C
3C
3C
3C
3E
3E
2C
7C
3C
2C
ENDCHAR
STARTCHAR Abreve
ENCODING 258
SWIDTH 494 0
DWIDTH 8 0
BBX 8 20 0 -3
BITMAP
33
37
3E
16
00
B9
7E
3C
3C
3C
3C
3C
3C
2C
3C
3C
2C
28
28
08
ENDCHAR
STARTCHAR abreve
ENCODING 259
SWIDTH 479 0
DWIDTH 8 0
BBX 8 18 0 -1
BITMAP
33
37
3E
16
00
FF
7E
3C
3C
3C
3C
3C
3E
3E
2C
7C
3C
2C
ENDCHAR
STARTCHAR Aogonek
ENCODING 260
SWIDTH 494 0
DWIDTH 8 0
BBX 8 19 0 -7
BITMAP
B9
7E
3C
3C
3C
3C
3C
3C
2C
3C
3C
2C
28
28
18
18
1C
0F
06
ENDCHAR
STARTCHAR aogonek
ENCODING 261
SWIDTH 479 0
DWIDTH 8 0
BBX 8 18 0 -6
BITMAP
FF
7E
3C
3C
3C
3C
3C
3E
3E
2C
7C
3C
24
0C
0C
0C
07
03
ENDCHAR
STARTCHAR Cacute
ENCODING 262
SWIDTH 504 0
DWIDTH 8 0
BBX 9 19 0 -2
BITMAP
0300
0700
0F80
1800
0000
3C00
7E00
7F00
FF00
FF00
7700
7600
7000
7000
7600
3E00
3C00
1400
1800
ENDCHAR
STARTCHAR cacute
ENCODING 263
SWIDTH 534 0
DWIDTH 9 0
BBX 9 18 0 -1
BITMAP
0100
0700
0F80
0800
0000
1C00
7F00
7F00
FF00
FF00
7700
7700
7000
7000
3600
3600
3E00
1C00
ENDCHAR
STARTCHAR Ccircumflex
ENCODING 264
SWIDTH 504 0
DWIDTH 8 0
BBX 8 21 0 -2
BITMAP
1C
3C
3E
76
63
42
00
3C
7E
7F
FF
FF
77
76
70
70
76
3E
3C
14
18
ENDCHAR
STARTCHAR ccircumflex
ENCODING 265
SWIDTH 534 0
DWIDTH 9 0
BBX 8 20 0 -1
BITMAP
1C
1E
3E
37
63
21
00
1C
7F
7F
FF
FF
77
77
70
70
36
36
3E
1C
ENDCHAR
STARTCHAR Cdotaccent
ENCODING 266
SWIDTH 504 0
DWIDTH 8 0
BBX 8 20 0 -2
BITMAP
0C
3C
3C
3C
3C
00
3C
7E
7F
FF
FF
77
76
70
70
76
3E
3C
14
18
ENDCHAR
STARTCHAR cdotaccent
ENCODING 267
SWIDTH 534 0
DWIDTH 9 0
BBX 8 19 0 -1
BITMAP
0C
3E
1E
1E
1E
00
1C
7F
7F
FF
FF
77
77
70
70
36
36
3E
1C
ENDCHAR
STARTCHAR Ccaron
ENCODING 268
SWIDTH 504 0
DWIDTH 8 0
BBX 8 21 0 -2
BITMAP
42
67
76
3E
3C
1C
00
3C
7E
7F
FF
FF
77
76
70
70
76
3E
3C
14
18
ENDCHAR
STARTCHAR ccaron
ENCODING 269
SWIDTH 534 0
DWIDTH 9 0
BBX 8 20 0 -1
BITMAP
23
73
37
3E
1E
1C
00
1C
7F
7F
FF
FF
77
77
70
70
36
36
3E
1C
ENDCHAR
STARTCHAR Dcaron
ENCODING 270
SWIDTH 522 0
DWIDTH 8 0
BBX 9 21 0 -2
BITMAP
2100
7380
3700
3E00
1E00
1C00
0000
9C00
7E00
7F00
7F00
3F00
3F00
3300
3200
3200
3600
3E00
3E00
2800
2800
ENDCHAR
STARTCHAR dcaron
ENCODING 271
SWIDTH 522 0
DWIDTH 8 0
BBX 9 21 0 -2
BITMAP
2100
7380
3700
3E00
1E00
1C00
0000
9C00
7E00
7F00
7F00
3F00
3F00
3300
3200
3200
3600
3E00
3E00
2800
2800
ENDCHAR
STARTCHAR Eth.dup2
ENCODING 272
SWIDTH 530 0
DWIDTH 9 0
BBX 8 14 1 -2
BITMAP
3C
FE
7F
7F
7F
77
76
FE
36
36
3E
3C
28
28
ENDCHAR
STARTCHAR Emacron
ENCODING 274
SWIDTH 570 0
DWIDTH 9 0
BBX 9 16 0 -1
BITMAP
3E00
3E00
0000
FE80
7F00
7F00
3F00
3E00
3200
3000
3C00
3C00
3000
3E00
2C00
2A00
ENDCHAR
STARTCHAR emacron
ENCODING 275
SWIDTH 632 0
DWIDTH 10 0
BBX 10 16 0 -1
BITMAP
3500
3F00
0000
3F40
FF80
7F80
3F00
3F00
3F00
3800
3E00
3E00
3A00
1F00
1E00
1500
ENDCHAR
STARTCHAR Ebreve
ENCODING 276
SWIDTH 570 0
DWIDTH 9 0
BBX 9 18 0 -1
BITMAP
3300
1B00
1F00
0A00
0000
FE80
7F00
7F00
3F00
3E00
3200
3000
3C00
3C00
3000
3E00
2C00
2A00
ENDCHAR
STARTCHAR ebreve
ENCODING 277
SWIDTH 632 0
DWIDTH 10 0
BBX 10 18 0 -1
BITMAP
1980
1D80
0F00
0700
0000
3F40
FF80
7F80
3F00
3F00
3F00
3800
3E00
3E00
3A00
1F00
1E00
1500
ENDCHAR
STARTCHAR Edotaccent
ENCODING 278
SWIDTH 570 0
DWIDTH 9 0
BBX 9 19 0 -1
BITMAP
0C00
3E00
1C00
1E00
1E00
0000
FE80
7F00
7F00
3F00
3E00
3200
3000
3C00
3C00
3000
3E00
2C00
2A00
ENDCHAR
STARTCHAR edotaccent
ENCODING 279
SWIDTH 632 0
DWIDTH 10 0
BBX 10 19 0 -1
BITMAP
2400
1E00
1E00
1E00
1E00
0000
3F40
FF80
7F80
3F00
3F00
3F00
3800
3E00
3E00
3A00
1F00
1E00
1500
ENDCHAR
STARTCHAR Eogonek
ENCODING 280
SWIDTH 513 0
DWIDTH 8 0
BBX 9 17 0 -5
BITMAP
FE80
7F00
7F00
3F00
3E00
3200
3000
3C00
3C00
3000
3E00
3C00
2C00
0800
0C00
0F00
0700
ENDCHAR
STARTCHAR eogonek
ENCODING 281
SWIDTH 632 0
DWIDTH 10 0
BBX 10 17 0 -5
BITMAP
3F40
FF80
7F80
3F00
3F00
3F00
3800
3E00
3E00
3A00
1F00
1E00
1600
0400
0600
0780
0380
ENDCHAR
STARTCHAR Ecaron
ENCODING 282
SWIDTH 570 0
DWIDTH 9 0
BBX 9 20 0 -1
BITMAP
2100
7300
3700
3E00
1E00
1C00
0000
FE80
7F00
7F00
3F00
3E00
3200
3000
3C00
3C00
3000
3E00
2C00
2A00
ENDCHAR
STARTCHAR ecaron
ENCODING 283
SWIDTH 632 0
DWIDTH 10 0
BBX 10 20 0 -1
BITMAP
1180
3980
1B80
1F00
0F00
0E00
0000
3F40
FF80
7F80
3F00
3F00
3F00
3800
3E00
3E00
3A00
1F00
1E00
1500
ENDCHAR
STARTCHAR Gcircumflex
ENCODING 284
SWIDTH 499 0
DWIDTH 8 0
BBX 8 21 0 -2
BITMAP
38
3C
7C
6E
C7
42
00
18
7E
7E
7F
7F
6E
66
68
6E
7E
76
3E
1C
10
ENDCHAR
STARTCHAR gcircumflex
ENCODING 285
SWIDTH 546 0
DWIDTH 9 0
BBX 8 20 0 -1
BITMAP
1C
3C
3E
66
63
42
00
3C
7F
7F
FF
7F
7F
77
71
77
37
33
3F
1E
ENDCHAR
STARTCHAR Gbreve
ENCODING 286
SWIDTH 499 0
DWIDTH 8 0
BBX 7 19 1 -2
BITMAP
CC
6C
7C
34
00
30
FC
FC
FE
FE
DC
CC
D0
DC
FC
EC
7C
38
20
ENDCHAR
STARTCHAR gbreve
ENCODING 287
SWIDTH 546 0
DWIDTH 9 0
BBX 8 18 0 -1
BITMAP
73
37
3E
16
00
3C
7F
7F
FF
7F
7F
77
71
77
37
33
3F
1E
ENDCHAR
STARTCHAR Gdotaccent
ENCODING 288
SWIDTH 499 0
DWIDTH 8 0
BBX 7 20 1 -2
BITMAP
90
78
78
78
78
00
30
FC
FC
FE
FE
DC
CC
D0
DC
FC
EC
7C
38
20
ENDCHAR
STARTCHAR gdotaccent
ENCODING 289
SWIDTH 546 0
DWIDTH 9 0
BBX 8 19 0 -1
BITMAP
0C
3C
3C
3C
3C
00
3C
7F
7F
FF
7F
7F
77
71
77
37
33
3F
1E
ENDCHAR
STARTCHAR Gcommaaccent
ENCODING 290
SWIDTH 499 0
DWIDTH 8 0
BBX 7 21 1 -9
BITMAP
30
FC
FC
FE
FE
DC
CC
D0
DC
FC
EC
7C
38
20
20
38
3C
38
58
08
18
ENDCHAR
STARTCHAR Hcircumflex
ENCODING 292
SWIDTH 726 0
DWIDTH 12 0
BBX 11 22 0 -3
BITMAP
0E00
0F00
1F00
1B80
3180
2080
0000
9BC0
79E0
79C0
39C0
39C0
3980
3B80
3F80
3F80
1B80
1B80
1B00
2300
0000
0400
ENDCHAR
STARTCHAR hcircumflex
ENCODING 293
SWIDTH 730 0
DWIDTH 12 0
BBX 12 20 0 -1
BITMAP
0E00
0F00
1F00
1B80
3180
2080
0000
9DF0
79E0
79C0
39C0
39C0
39C0
3F80
3F80
3B80
3B80
1B80
1B00
2300
ENDCHAR
STARTCHAR hbar
ENCODING 295
SWIDTH 704 0
DWIDTH 11 0
BBX 11 13 0 -1
BITMAP
9BE0
7BC0
7FC0
3F80
3F80
3B80
3B80
3F80
3B80
3B80
1B80
1B00
2300
ENDCHAR
STARTCHAR Itilde
ENCODING 296
SWIDTH 401 0
DWIDTH 6 0
BBX 8 17 -1 -1
BITMAP
4E
FF
76
00
7E
3C
1C
1C
1C
1C
1C
1C
1C
1C
1C
1C
18
ENDCHAR
STARTCHAR itilde
ENCODING 297
SWIDTH 411 0
DWIDTH 7 0
BBX 8 17 -1 -1
BITMAP
4E
FF
76
00
7E
3E
1C
1C
1C
1C
1C
1C
1C
1C
18
08
04
ENDCHAR
STARTCHAR Imacron
ENCODING 298
SWIDTH 401 0
DWIDTH 6 0
BBX 6 16 0 -1
BITMAP
D4
FC
00
FC
78
38
38
38
38
38
38
38
38
38
38
30
ENDCHAR
STARTCHAR imacron
ENCODING 299
SWIDTH 411 0
DWIDTH 7 0
BBX 6 16 0 -1
BITMAP
74
FC
00
FC
7C
38
38
38
38
38
38
38
38
30
10
08
ENDCHAR
STARTCHAR Ibreve
ENCODING 300
SWIDTH 401 0
DWIDTH 6 0
BBX 7 18 0 -1
BITMAP
C6
6C
7C
28
00
FC
78
38
38
38
38
38
38
38
38
38
38
30
ENDCHAR
STARTCHAR ibreve
ENCODING 301
SWIDTH 411 0
DWIDTH 7 0
BBX 7 18 0 -1
BITMAP
C6
6C
7C
28
00
FC
7C
38
38
38
38
38
38
38
38
30
10
08
ENDCHAR
STARTCHAR Iogonek
ENCODING 302
SWIDTH 401 0
DWIDTH 6 0
BBX 6 18 0 -6
BITMAP
FC
78
38
38
38
38
38
38
38
38
38
38
30
30
20
30
3C
1C
ENDCHAR
STARTCHAR iogonek
ENCODING 303
SWIDTH 412 0
DWIDTH 7 0
BBX 6 18 0 -6
BITMAP
FC
7C
38
38
38
38
38
38
38
38
30
30
38
30
30
30
3C
1C
ENDCHAR
STARTCHAR Idotaccent
ENCODING 304
SWIDTH 401 0
DWIDTH 6 0
BBX 6 19 0 -1
BITMAP
10
78
78
78
78
00
FC
78
38
38
38
38
38
38
38
38
38
38
30
ENDCHAR
STARTCHAR dotlessi
ENCODING 305
SWIDTH 411 0
DWIDTH 7 0
BBX 6 13 0 -1
BITMAP
FC
7C
38
38
38
38
38
38
38
38
30
10
08
ENDCHAR
STARTCHAR IJ
ENCODING 306
SWIDTH 908 0
DWIDTH 15 0
BBX 14 13 0 -1
BITMAP
FC38
7C3C
3C38
3838
3838
3838
3838
3830
39B0
39B0
39F0
18F0
2840
ENDCHAR
STARTCHAR ij
ENCODING 307
SWIDTH 901 0
DWIDTH 14 0
BBX 14 13 0 -1
BITMAP
FC74
7C38
3C38
3838
3838
3838
3838
3838
39B8
39B8
19F8
18F0
0830
ENDCHAR
STARTCHAR Jcircumflex
ENCODING 308
SWIDTH 455 0
DWIDTH 7 0
BBX 8 20 0 -1
BITMAP
1C
3C
3E
36
63
41
00
3E
1C
1C
1C
1C
1C
18
18
D8
D8
F8
F0
60
ENDCHAR
STARTCHAR jcircumflex
ENCODING 309
SWIDTH 458 0
DWIDTH 7 0
BBX 8 20 0 -1
BITMAP
1C
3C
3E
36
63
41
00
3A
3C
1C
1C
1C
1C
1C
1C
DC
DC
F8
78
18
ENDCHAR
STARTCHAR Kcommaaccent
ENCODING 310
SWIDTH 580 0
DWIDTH 9 0
BBX 9 20 0 -8
BITMAP
F280
7700
3600
3E00
3C00
3C00
3E00
3E00
1E00
1E00
1600
1A00
1E00
0800
1E00
1E00
1E00
1600
0600
0600
ENDCHAR
STARTCHAR kcommaaccent
ENCODING 311
SWIDTH 636 0
DWIDTH 10 0
BBX 10 20 0 -8
BITMAP
BBC0
7B80
3B00
3E00
3E00
3E00
1C00
1C00
1E00
1E00
1B00
1B00
1A00
0800
0E00
0F00
0F00
0F00
0200
0200
ENDCHAR
STARTCHAR kgreenlandic
ENCODING 312
SWIDTH 636 0
DWIDTH 10 0
BBX 10 13 0 -1
BITMAP
BBC0
7B80
3B00
3E00
3E00
3E00
1C00
1C00
1E00
1E00
1B00
1B00
1A00
ENDCHAR
STARTCHAR Lacute
ENCODING 313
SWIDTH 416 0
DWIDTH 7 0
BBX 9 18 0 -1
BITMAP
0300
0700
0F80
1800
0000
FC00
7800
7000
7000
7000
7000
3000
3000
3000
3000
3E00
3E00
2A00
ENDCHAR
STARTCHAR lacute
ENCODING 314
SWIDTH 438 0
DWIDTH 7 0
BBX 9 18 0 -1
BITMAP
0100
0700
0F80
0800
0000
FE00
7800
7800
3800
3800
3800
3800
3800
3800
3900
1E00
1E00
2200
ENDCHAR
STARTCHAR Lcommaaccent
ENCODING 315
SWIDTH 416 0
DWIDTH 7 0
BBX 7 21 0 -9
BITMAP
FC
78
70
70
70
70
30
30
30
30
3E
3E
2A
00
20
3C
3C
3C
3C
08
08
ENDCHAR
STARTCHAR lcommaaccent
ENCODING 316
SWIDTH 438 0
DWIDTH 7 0
BBX 8 21 0 -9
BITMAP
FE
78
78
38
38
38
38
38
38
39
1E
1E
22
00
20
3C
3C
3C
2C
0C
0C
ENDCHAR
STARTCHAR Lcaron
ENCODING 317
SWIDTH 714 0
DWIDTH 11 0
BBX 11 13 0 -1
BITMAP
FD00
79E0
71E0
71E0
71E0
7060
3060
3040
3000
3000
3E00
3E00
2A00
ENDCHAR
STARTCHAR lcaron
ENCODING 318
SWIDTH 782 0
DWIDTH 13 0
BBX 12 13 0 -1
BITMAP
FE80
78F0
78F0
38F0
38F0
3830
3830
3830
3800
3900
1E00
1E00
2200
ENDCHAR
STARTCHAR Ldotaccent
ENCODING 319
SWIDTH 567 0
DWIDTH 9 0
BBX 10 13 0 -1
BITMAP
FC00
7800
7000
77C0
73C0
73C0
33C0
3400
3000
3000
3E00
3E00
2A00
ENDCHAR
STARTCHAR ldot
ENCODING 320
SWIDTH 660 0
DWIDTH 11 0
BBX 11 13 0 -1
BITMAP
FE00
7800
7800
3A40
39E0
39E0
39E0
39E0
3800
3900
1E00
1E00
2200
ENDCHAR
STARTCHAR Lslash
ENCODING 321
SWIDTH 428 0
DWIDTH 7 0
BBX 8 13 0 -1
BITMAP
FC
78
70
32
3E
7E
FD
70
30
30
3E
3E
2A
ENDCHAR
STARTCHAR lslash
ENCODING 322
SWIDTH 457 0
DWIDTH 7 0
BBX 8 13 0 -1
BITMAP
FE
78
38
3A
3F
7F
FC
78
78
18
1F
1E
12
ENDCHAR
STARTCHAR Nacute
ENCODING 323
SWIDTH 610 0
DWIDTH 10 0
BBX 10 20 0 -3
BITMAP
0080
01C0
07C0
0400
0000
7700
FB80
7B00
7B00
3F00
3F00
3F00
3F00
3F00
3700
3600
3600
1600
2C00
0800
ENDCHAR
STARTCHAR nacute
ENCODING 324
SWIDTH 664 0
DWIDTH 11 0
BBX 11 19 0 -2
BITMAP
00C0
01C0
03E0
0200
0000
FBE0
7BC0
7F80
7F80
7F80
3F80
3F80
3F00
3700
3700
3700
3700
3600
0200
ENDCHAR
STARTCHAR Ncommaaccent
ENCODING 325
SWIDTH 610 0
DWIDTH 10 0
BBX 9 22 0 -10
BITMAP
7700
FB80
7B00
7B00
3F00
3F00
3F00
3F00
3F00
3700
3600
3600
1600
2C00
0800
0800
0E00
0F00
0F00
0E00
0200
0600
ENDCHAR
STARTCHAR ncommaaccent
ENCODING 326
SWIDTH 664 0
DWIDTH 11 0
BBX 11 21 0 -9
BITMAP
FBE0
7BC0
7F80
7F80
7F80
3F80
3F80
3F00
3700
3700
3700
3700
3600
0200
0800
0F00
0F00
0F00
0B00
0300
0300
ENDCHAR
STARTCHAR Ncaron
ENCODING 327
SWIDTH 610 0
DWIDTH 10 0
BBX 9 22 0 -3
BITMAP
6100
3380
3B00
1F00
1E00
0C00
0000
7700
FB80
7B00
7B00
3F00
3F00
3F00
3F00
3F00
3700
3600
3600
1600
2C00
0800
ENDCHAR
STARTCHAR ncaron
ENCODING 328
SWIDTH 664 0
DWIDTH 11 0
BBX 11 21 0 -2
BITMAP
1180
3980
1B80
1F00
0F00
0E00
0000
FBE0
7BC0
7F80
7F80
7F80
3F80
3F80
3F00
3700
3700
3700
3700
3600
0200
ENDCHAR
STARTCHAR Omacron
ENCODING 332
SWIDTH 504 0
DWIDTH 8 0
BBX 8 16 0 -1
BITMAP
6E
7C
00
18
7E
7F
FF
7F
7F
67
67
66
76
7E
3C
1C
ENDCHAR
STARTCHAR omacron
ENCODING 333
SWIDTH 545 0
DWIDTH 9 0
BBX 8 16 0 -1
BITMAP
3A
7E
00
1C
7F
7F
FF
7F
77
77
77
77
76
3E
3E
14
ENDCHAR
STARTCHAR Obreve
ENCODING 334
SWIDTH 504 0
DWIDTH 8 0
BBX 8 18 0 -1
BITMAP
67
36
3E
14
00
18
7E
7F
FF
7F
7F
67
67
66
76
7E
3C
1C
ENDCHAR
STARTCHAR obreve
ENCODING 335
SWIDTH 545 0
DWIDTH 9 0
BBX 8 18 0 -1
BITMAP
63
36
3E
14
00
1C
7F
7F
FF
7F
77
77
77
77
76
3E
3E
14
ENDCHAR
STARTCHAR Ohungarumlaut
ENCODING 336
SWIDTH 504 0
DWIDTH 8 0
BBX 8 20 0 -1
BITMAP
24
37
77
66
CC
48
00
18
7E
7F
FF
7F
7F
67
67
66
76
7E
3C
1C
ENDCHAR
STARTCHAR ohungarumlaut
ENCODING 337
SWIDTH 545 0
DWIDTH 9 0
BBX 9 20 0 -1
BITMAP
2200
3380
3F00
6600
6400
4C00
0000
1C00
7F00
7F00
FF00
7F00
7700
7700
7700
7700
7600
3E00
3E00
1400
ENDCHAR
STARTCHAR OE
ENCODING 338
SWIDTH 789 0
DWIDTH 13 0
BBX 12 14 0 -2
BITMAP
1FE0
7FF0
7FE0
FFE0
7FE0
7F60
6700
67C0
67C0
7700
7FC0
3DC0
1D40
1D40
ENDCHAR
STARTCHAR oe
ENCODING 339
SWIDTH 778 0
DWIDTH 12 0
BBX 12 13 0 -1
BITMAP
1FC0
7FF0
7FE0
FFE0
7FE0
77C0
6700
67C0
67C0
3640
3E80
3FC0
1D40
ENDCHAR
STARTCHAR Racute
ENCODING 340
SWIDTH 599 0
DWIDTH 10 0
BBX 10 18 0 -1
BITMAP
0080
0180
07C0
0400
0000
3E00
FF80
3F80
3F80
3F80
3B80
3B80
3F80
1F00
1B00
1B00
1B00
1700
ENDCHAR
STARTCHAR racute
ENCODING 341
SWIDTH 616 0
DWIDTH 10 0
BBX 10 18 0 -1
BITMAP
0080
01C0
07C0
0400
0000
BE00
7F80
3FC0
3F80
3F80
3B80
3B80
3F80
1F00
1B00
1B00
1B00
1B00
ENDCHAR
STARTCHAR Rcommaaccent
ENCODING 342
SWIDTH 599 0
DWIDTH 10 0
BBX 9 21 0 -9
BITMAP
3E00
FF80
3F80
3F80
3F80
3B80
3B80
3F80
1F00
1B00
1B00
1B00
1700
0000
0800
1E00
1E00
1E00
1600
0600
0600
ENDCHAR
STARTCHAR rcommaaccent
ENCODING 343
SWIDTH 616 0
DWIDTH 10 0
BBX 10 21 0 -9
BITMAP
BE00
7F80
3FC0
3F80
3F80
3B80
3B80
3F80
1F00
1B00
1B00
1B00
1B00
0000
0800
0E00
0E00
0E00
1600
0200
0600
ENDCHAR
STARTCHAR Rcaron
ENCODING 344
SWIDTH 599 0
DWIDTH 10 0
BBX 9 20 0 -1
BITMAP
3100
3380
1B00
1F00
1E00
0E00
0000
3E00
FF80
3F80
3F80
3F80
3B80
3B80
3F80
1F00
1B00
1B00
1B00
1700
ENDCHAR
STARTCHAR rcaron
ENCODING 345
SWIDTH 616 0
DWIDTH 10 0
BBX 10 20 0 -1
BITMAP
3100
3380
3B00
1F00
1E00
0E00
0000
BE00
7F80
3FC0
3F80
3F80
3B80
3B80
3F80
1F00
1B00
1B00
1B00
1B00
ENDCHAR
STARTCHAR Sacute
ENCODING 346
SWIDTH 504 0
DWIDTH 8 0
BBX 9 18 0 -1
BITMAP
0100
0380
0F80
0800
0000
1C00
7E00
7F00
7F00
FF00
FF00
7100
7C00
3E00
3600
7E00
3C00
2C00
ENDCHAR
STARTCHAR sacute
ENCODING 347
SWIDTH 481 0
DWIDTH 8 0
BBX 9 18 0 -1
BITMAP
0100
0300
0F80
0800
0000
1C00
7E00
7E00
FE00
FE00
FE00
7600
7C00
3C00
0C00
7E00
3C00
3800
ENDCHAR
STARTCHAR Scircumflex
ENCODING 348
SWIDTH 504 0
DWIDTH 8 0
BBX 8 20 0 -1
BITMAP
1C
1C
3E
36
63
41
00
1C
7E
7F
7F
FF
FF
71
7C
3E
36
7E
3C
2C
ENDCHAR
STARTCHAR scircumflex
ENCODING 349
SWIDTH 481 0
DWIDTH 8 0
BBX 8 20 0 -1
BITMAP
1C
3C
3E
76
63
42
00
1C
7E
7E
FE
FE
FE
76
7C
3C
0C
7E
3C
38
ENDCHAR
STARTCHAR Scedilla
ENCODING 350
SWIDTH 504 0
DWIDTH 8 0
BBX 8 17 0 -5
BITMAP
1C
7E
7F
7F
FF
FF
71
7C
3E
36
7E
3C
2C
08
1C
04
1C
ENDCHAR
STARTCHAR scedilla
ENCODING 351
SWIDTH 481 0
DWIDTH 8 0
BBX 7 17 0 -5
BITMAP
1C
7E
7E
FE
FE
FE
76
7C
3C
0C
7E
3C
38
10
1C
0C
1C
ENDCHAR
STARTCHAR Scaron
ENCODING 352
SWIDTH 503 0
DWIDTH 8 0
BBX 8 21 0 -1
BITMAP
62
67
76
3C
3C
04
00
00
1C
7E
7F
7F
FF
FF
71
7C
3E
36
7E
3C
2C
ENDCHAR
STARTCHAR scaron
ENCODING 353
SWIDTH 479 0
DWIDTH 8 0
BBX 8 21 0 -1
BITMAP
C2
67
6E
3C
3C
28
00
00
1C
7E
7E
FE
FE
FE
76
7C
3C
0C
7C
3C
38
ENDCHAR
STARTCHAR Tcommaaccent
ENCODING 354
SWIDTH 622 0
DWIDTH 10 0
BBX 9 18 0 -6
BITMAP
BE00
7F80
7F80
3F80
3F80
3F00
0C00
0E00
0E00
0C00
0C00
0C00
0C00
0C00
0C00
0E00
0200
0E00
ENDCHAR
STARTCHAR tcommaaccent
ENCODING 355
SWIDTH 683 0
DWIDTH 11 0
BBX 10 18 0 -6
BITMAP
3F80
FFC0
7F80
3F80
3F80
3F80
4E00
0E00
0600
0600
0600
0600
0600
0600
0400
0700
0300
0700
ENDCHAR
STARTCHAR Tcaron
ENCODING 356
SWIDTH 622 0
DWIDTH 10 0
BBX 9 21 0 -2
BITMAP
6100
3380
3700
1E00
1E00
1C00
0000
BE00
7F80
7F80
3F80
3F80
3F00
0C00
0E00
0E00
0C00
0C00
0C00
0C00
0C00
ENDCHAR
STARTCHAR tcaron
ENCODING 357
SWIDTH 622 0
DWIDTH 10 0
BBX 9 21 0 -2
BITMAP
3100
3380
1B00
1F00
1E00
0E00
0000
BE00
7F80
7F80
3F80
3F80
3F00
0C00
0E00
0E00
0C00
0C00
0C00
0C00
0C00
ENDCHAR
STARTCHAR Utilde
ENCODING 360
SWIDTH 637 0
DWIDTH 10 0
BBX 10 17 0 -1
BITMAP
2700
7F80
3B00
0000
FB00
7BC0
7380
3B80
3B00
3B00
3300
3300
3B00
3F00
3F00
1600
1400
ENDCHAR
STARTCHAR utilde
ENCODING 361
SWIDTH 708 0
DWIDTH 11 0
BBX 12 16 0 0
BITMAP
3300
3F80
1D00
0000
B900
79F0
79C0
39C0
39C0
3980
3980
3B80
3B80
1B80
1F80
0B00
ENDCHAR
STARTCHAR Umacron
ENCODING 362
SWIDTH 637 0
DWIDTH 10 0
BBX 10 16 0 -1
BITMAP
3500
3F00
0000
FB00
7BC0
7380
3B80
3B00
3B00
3300
3300
3B00
3F00
3F00
1600
1400
ENDCHAR
STARTCHAR umacron
ENCODING 363
SWIDTH 708 0
DWIDTH 11 0
BBX 12 15 0 0
BITMAP
1B00
1F00
0000
B900
79F0
79C0
39C0
39C0
3980
3980
3B80
3B80
1B80
1F80
0B00
ENDCHAR
STARTCHAR Ubreve
ENCODING 364
SWIDTH 637 0
DWIDTH 10 0
BBX 10 18 0 -1
BITMAP
3980
1B00
1F00
0B00
0000
FB00
7BC0
7380
3B80
3B00
3B00
3300
3300
3B00
3F00
3F00
1600
1400
ENDCHAR
STARTCHAR ubreve
ENCODING 365
SWIDTH 708 0
DWIDTH 11 0
BBX 12 17 0 0
BITMAP
1980
0D80
0F80
0680
0000
B900
79F0
79C0
39C0
39C0
3980
3980
3B80
3B80
1B80
1F80
0B00
ENDCHAR
STARTCHAR Uring
ENCODING 366
SWIDTH 637 0
DWIDTH 10 0
BBX 10 18 0 -1
BITMAP
0E00
1200
1300
0E00
0000
FB00
7BC0
7380
3B80
3B00
3B00
3300
3300
3B00
3F00
3F00
1600
1400
ENDCHAR
STARTCHAR uring
ENCODING 367
SWIDTH 708 0
DWIDTH 11 0
BBX 12 17 0 0
BITMAP
0F00
0900
0900
0E00
0000
B900
79F0
79C0
39C0
39C0
3980
3980
3B80
3B80
1B80
1F80
0B00
ENDCHAR
STARTCHAR Uhungarumlaut
ENCODING 368
SWIDTH 637 0
DWIDTH 10 0
BBX 10 20 0 -1
BITMAP
1100
19C0
1F80
3300
2200
2400
0000
FB00
7BC0
7380
3B80
3B00
3B00
3300
3300
3B00
3F00
3F00
1600
1400
ENDCHAR
STARTCHAR uhungarumlaut
ENCODING 369
SWIDTH 708 0
DWIDTH 11 0
BBX 12 19 0 0
BITMAP
0900
0DC0
1D80
1900
3300
2200
0000
B900
79F0
79C0
39C0
39C0
3980
3980
3B80
3B80
1B80
1F80
0B00
ENDCHAR
STARTCHAR Uogonek
ENCODING 370
SWIDTH 637 0
DWIDTH 10 0
BBX 10 17 0 -5
BITMAP
FB00
7BC0
7380
3B80
3B00
3B00
3300
3300
3B00
3F00
3F00
1600
1400
0400
0400
0780
0380
ENDCHAR
STARTCHAR uogonek
ENCODING 371
SWIDTH 662 0
DWIDTH 11 0
BBX 11 17 0 -5
BITMAP
B900
79E0
7BC0
39C0
39C0
3980
3980
3B80
3B80
1B80
1F80
0B00
0400
0C00
0C00
0780
0700
ENDCHAR
STARTCHAR Wcircumflex
ENCODING 372
SWIDTH 777 0
DWIDTH 12 0
BBX 13 19 0 0
BITMAP
0700
0F00
0F80
1980
18C0
1080
0000
12E0
F6F8
3FE0
3FC0
3FC0
1F80
1F80
0F80
0F80
0F80
0D00
0700
ENDCHAR
STARTCHAR wcircumflex
ENCODING 373
SWIDTH 704 0
DWIDTH 11 0
BBX 12 19 0 0
BITMAP
0E00
0F00
1F00
1B80
3180
2080
0000
3480
F6F0
37C0
37C0
3F80
1F80
1F80
1F80
0F80
0F80
0F00
0D00
ENDCHAR
STARTCHAR Ycircumflex
ENCODING 374
SWIDTH 688 0
DWIDTH 11 0
BBX 11 20 0 -1
BITMAP
0E00
0F00
1F00
1B80
3180
2080
0000
F900
39E0
1FC0
0F80
0F00
0700
0700
0700
0700
0300
0300
0300
0200
ENDCHAR
STARTCHAR ycircumflex
ENCODING 375
SWIDTH 604 0
DWIDTH 10 0
BBX 10 20 0 -1
BITMAP
1C00
1E00
3E00
3700
6300
4100
0000
F200
73C0
1F00
1E00
1E00
0E00
0E00
0C00
0C00
0C00
0C00
0C00
0C00
ENDCHAR
STARTCHAR Ydieresis
ENCODING 376
SWIDTH 688 0
DWIDTH 11 0
BBX 11 18 0 -1
BITMAP
29C0
3BC0
3BC0
3BC0
0000
F900
39E0
1FC0
0F80
0F00
0700
0700
0700
0700
0300
0300
0300
0200
ENDCHAR
STARTCHAR Zacute
ENCODING 377
SWIDTH 695 0
DWIDTH 11 0
BBX 10 18 1 -1
BITMAP
0080
01C0
07C0
0400
0000
7E00
FFC0
FF80
7F80
7F00
6F00
4C00
1C00
1800
3000
3E00
3C00
0400
ENDCHAR
STARTCHAR zacute
ENCODING 378
SWIDTH 622 0
DWIDTH 10 0
BBX 10 18 1 -1
BITMAP
0100
0380
07C0
0C00
0000
7E00
FF00
FF00
7E00
7E00
6E00
4C00
1800
1800
3000
3C00
3C00
2400
ENDCHAR
STARTCHAR Zdotaccent
ENCODING 379
SWIDTH 695 0
DWIDTH 11 0
BBX 10 19 1 -1
BITMAP
2C00
1E00
1E00
1E00
1E00
0000
7E00
FFC0
FF80
7F80
7F00
6F00
4C00
1C00
1800
3000
3E00
3C00
0400
ENDCHAR
STARTCHAR zdotaccent
ENCODING 380
SWIDTH 622 0
DWIDTH 10 0
BBX 8 19 1 -1
BITMAP
48
3C
3C
3C
3C
00
7E
FF
FF
7E
7E
6E
4C
18
18
30
3C
3C
24
ENDCHAR
STARTCHAR Zcaron
ENCODING 381
SWIDTH 693 0
DWIDTH 11 0
BBX 10 21 1 -1
BITMAP
6300
3300
3700
1E00
1E00
0200
0000
0000
7E00
FFC0
FF80
7F80
7F00
6F00
4C00
1C00
1800
3000
3E00
3C00
0400
ENDCHAR
STARTCHAR zcaron
ENCODING 382
SWIDTH 621 0
DWIDTH 10 0
BBX 9 21 0 -1
BITMAP
6180
3300
3F00
1E00
1E00
0000
0000
0000
BF00
7F80
7F80
3F00
3F00
3700
2E00
0C00
0C00
1800
1E00
1E00
1200
ENDCHAR
STARTCHAR DZ
ENCODING 497
SWIDTH 194 0
DWIDTH 3 0
BBX 1 1 0 0
BITMAP
00
ENDCHAR
STARTCHAR Dz
ENCODING 498
SWIDTH 194 0
DWIDTH 3 0
BBX 1 1 0 0
BITMAP
00
ENDCHAR
STARTCHAR dotlessj
ENCODING 567
SWIDTH 458 0
DWIDTH 7 0
BBX 7 13 0 -1
BITMAP
3A
3C
1C
1C
1C
1C
1C
1C
DC
DC
F8
78
18
ENDCHAR
STARTCHAR circumflex
ENCODING 710
SWIDTH 528 0
DWIDTH 8 0
BBX 7 6 1 11
BITMAP
38
78
7C
CC
C6
84
ENDCHAR
STARTCHAR caron
ENCODING 711
SWIDTH 486 0
DWIDTH 8 0
BBX 8 6 0 11
BITMAP
42
E7
6E
7C
3C
38
ENDCHAR
STARTCHAR breve
ENCODING 728
SWIDTH 464 0
DWIDTH 7 0
BBX 6 4 1 -1
BITMAP
CC
FC
F8
58
ENDCHAR
STARTCHAR dotaccent
ENCODING 729
SWIDTH 388 0
DWIDTH 6 0
BBX 4 5 1 4
BITMAP
20
F0
F0
F0
F0
ENDCHAR
STARTCHAR ring
ENCODING 730
SWIDTH 370 0
DWIDTH 6 0
BBX 4 4 1 5
BITMAP
F0
90
90
E0
ENDCHAR
STARTCHAR ogonek
ENCODING 731
SWIDTH 360 0
DWIDTH 6 0
BBX 4 6 1 0
BITMAP
40
C0
80
C0
F0
70
ENDCHAR
STARTCHAR tilde
ENCODING 732
SWIDTH 535 0
DWIDTH 9 0
BBX 7 3 1 -1
BITMAP
CC
FE
74
ENDCHAR
STARTCHAR hungarumlaut
ENCODING 733
SWIDTH 554 0
DWIDTH 9 0
BBX 8 6 1 11
BITMAP
44
67
7E
CC
88
90
ENDCHAR
STARTCHAR dotaccentcmb
ENCODING 775
SWIDTH 396 0
DWIDTH 6 0
BBX 4 5 1 6
BITMAP
F0
F0
F0
F0
F0
ENDCHAR
STARTCHAR uni030F
ENCODING 783
SWIDTH 549 0
DWIDTH 9 0
BBX 8 6 0 11
BITMAP
22
E6
6E
33
13
19
ENDCHAR
STARTCHAR uni0311
ENCODING 785
SWIDTH 490 0
DWIDTH 8 0
BBX 6 4 1 6
BITMAP
70
F8
CC
CC
ENDCHAR
STARTCHAR uni0326
ENCODING 806
SWIDTH 360 0
DWIDTH 6 0
BBX 4 7 1 -1
BITMAP
80
F0
F0
F0
B0
30
30
ENDCHAR
STARTCHAR endash
ENCODING 8211
SWIDTH 478 0
DWIDTH 8 0
BBX 6 3 1 5
BITMAP
FC
F8
F8
ENDCHAR
STARTCHAR emdash
ENCODING 8212
SWIDTH 567 0
DWIDTH 9 0
BBX 7 3 1 5
BITMAP
FE
FE
FE
ENDCHAR
STARTCHAR quoteleft
ENCODING 8216
SWIDTH 373 0
DWIDTH 6 0
BBX 4 8 1 4
BITMAP
C0
C0
C0
F0
F0
F0
F0
F0
ENDCHAR
STARTCHAR quoteright
ENCODING 8217
SWIDTH 369 0
DWIDTH 6 0
BBX 4 8 1 4
BITMAP
F0
F0
F0
F0
F0
30
30
30
ENDCHAR
STARTCHAR quotesinglbase
ENCODING 8218
SWIDTH 369 0
DWIDTH 6 0
BBX 4 8 1 4
BITMAP
F0
F0
F0
F0
F0
30
30
30
ENDCHAR
STARTCHAR quotedblleft
ENCODING 8220
SWIDTH 687 0
DWIDTH 11 0
BBX 9 8 1 4
BITMAP
C600
C600
C600
F780
F780
F780
F780
F780
ENDCHAR
STARTCHAR quotedblright
ENCODING 8221
SWIDTH 677 0
DWIDTH 11 0
BBX 9 8 1 4
BITMAP
F780
F780
F780
F780
F780
3180
2180
2100
ENDCHAR
STARTCHAR quotedblbase
ENCODING 8222
SWIDTH 697 0
DWIDTH 11 0
BBX 9 8 1 -5
BITMAP
F780
F780
F780
F780
F780
3080
3180
2180
ENDCHAR
STARTCHAR ellipsis
ENCODING 8230
SWIDTH 1462 0
DWIDTH 23 0
BBX 22 5 1 1
BITMAP
70B058
F0783C
F0783C
F0783C
F0783C
ENDCHAR
STARTCHAR guilsinglleft
ENCODING 8249
SWIDTH 459 0
DWIDTH 7 0
BBX 7 9 0 1
BITMAP
3E
3C
38
78
F0
78
38
1C
0E
ENDCHAR
STARTCHAR guilsinglright
ENCODING 8250
SWIDTH 432 0
DWIDTH 7 0
BBX 6 9 0 1
BITMAP
F8
78
38
1C
1C
1C
38
78
70
ENDCHAR
STARTCHAR fraction
ENCODING 8260
SWIDTH 371 0
DWIDTH 6 0
BBX 6 13 0 -1
BITMAP
FC
78
38
38
38
30
30
38
30
30
30
30
08
ENDCHAR
STARTCHAR Euro
ENCODING 8364
SWIDTH 587 0
DWIDTH 9 0
BBX 9 15 0 -3
BITMAP
1E00
3F00
3F80
3F80
3F80
3B80
3B80
F800
F800
3B00
1F00
1E00
0A00
0C00
0C00
ENDCHAR
STARTCHAR trademark
ENCODING 8482
SWIDTH 785 0
DWIDTH 13 0
BBX 12 8 0 4
BITMAP
FBF0
79F0
79E0
79E0
31E0
31E0
3160
3120
ENDCHAR
STARTCHAR minus
ENCODING 8722
SWIDTH 478 0
DWIDTH 8 0
BBX 6 3 1 5
BITMAP
FC
F8
F8
ENDCHAR
STARTCHAR commaaccent
ENCODING 63171
SWIDTH 360 0
DWIDTH 6 0
BBX 4 8 1 -2
BITMAP
80
F0
F0
F0
F0
30
30
30
ENDCHAR
STARTCHAR .notdef
ENCODING -1
SWIDTH 365 0
DWIDTH 6 0
BBX 4 11 1 0
BITMAP
F0
90
90
90
90
90
90
90
90
90
F0
ENDCHAR
STARTCHAR .null
ENCODING -1
SWIDTH 0 0
DWIDTH 0 0
BBX 1 1 0 0
BITMAP
00
ENDCHAR
STARTCHAR nonmarkingreturn
ENCODING -1
SWIDTH 333 0
DWIDTH 5 0
BBX 1 1 0 0
BITMAP
00
ENDCHAR
ENDFONT
